<svg xmlns="http://www.w3.org/2000/svg" viewBox="0 0 40 56">
    <path fill="#6e6e73" d="M21.67,36.55l-7.34-6.89a1.39,1.39,0,0,1-.57-1.07,1,1,0,0,1,1.09-1.06h2.91c2.21,0,3.66-.84,4-2.48H14.56a.81.81,0,0,1,0-1.62h7.17a3.12,3.12,0,0,0-3.26-2.54H14.58a.94.94,0,0,1-.94-.94.91.91,0,0,1,.94-.93H25.46a.77.77,0,0,1,.82.8.78.78,0,0,1-.82.8H22.55a4.39,4.39,0,0,1,1.27,2.81h1.74a.81.81,0,0,1,0,1.62H23.82c-.35,2.52-2.29,4.36-6.15,4.36h-.82l6.27,5.84a1.11,1.11,0,0,1,.41.82.91.91,0,0,1-.94.91A1.19,1.19,0,0,1,21.67,36.55Z"/>
    <path fill="#6e6e73" d="M20,10.7A17.3,17.3,0,1,1,2.7,28,17.32,17.32,0,0,1,20,10.7m0-2.2A19.5,19.5,0,1,0,39.5,28,19.5,19.5,0,0,0,20,8.5Z"/>
</svg>
