<svg xmlns="http://www.w3.org/2000/svg" viewBox="0 0 27 54"><title>family-chapternav-music-master-17-schou-sri-COsri</title><g id="Light"><path d="M5.89,24.49C3.51,24.58,2,26.08.6,27.55,0,28.21.12,28.69.12,30.06c0,1.85,0,2.07.5,2.87A6.36,6.36,0,0,0,5.89,36c3.62.27,6.74-2.57,6.74-5.75S9.51,24.36,5.89,24.49ZM2.8,32a.6.6,0,0,1-1.19,0V28.58a.6.6,0,0,1,1.19,0Zm6.71-1.72a.89.89,0,0,1-.9.88H6.67a.89.89,0,0,1-.9-.88v-.11a.89.89,0,0,1,.9-.88H8.62a.89.89,0,0,1,.9.88Zm-3,6.92c0,.36,0,13.47,0,13.47A1.53,1.53,0,0,0,7.88,52c.37,0,.66,0,1.3,0h.31a1.58,1.58,0,0,0,1.45-1.51v-.2h0l0-2.44V36A6.94,6.94,0,0,1,6.49,37.22Zm20-9.72c-1.4-1.47-3-2.92-5.35-3-3.62-.13-6.72,2.59-6.72,5.78A6.19,6.19,0,0,0,21,36.09a6.69,6.69,0,0,0,5.38-3.2c.54-.8.5-1,.5-2.87C26.92,28.64,27.08,28.16,26.45,27.5Zm-5.23,2.8a.89.89,0,0,1-.9.88H18.38a.89.89,0,0,1-.9-.88v-.11a.89.89,0,0,1,.9-.88h1.94a.89.89,0,0,1,.9.88ZM25.36,32a.59.59,0,0,1-1.19,0V28.59a.59.59,0,0,1,1.19,0ZM16,36V47.82l0,2.44h0v.2A1.57,1.57,0,0,0,17.51,52h.31c.64,0,.92,0,1.29,0a1.52,1.52,0,0,0,1.39-1.31s0-13.12,0-13.48A6.9,6.9,0,0,1,16,36Z"/></g></svg>