<svg xmlns="http://www.w3.org/2000/svg" viewBox="0 0 31 54"><defs><style>.cls-1,.cls-2{fill:#1d1d1f;}.cls-1{fill-rule:evenodd;}</style></defs><title>ipad_accessories_light_large </title><g id="Light"><g id="Accessories"><path class="cls-1" d="M27,12h2V47H27v4h2.7A1.3,1.3,0,0,0,31,49.68V9.51A1.47,1.47,0,0,0,29.69,8H27Z"/><path id="iPad_Accessories" data-name="iPad Accessories" class="cls-2" d="M26,51.65V7.35A1.33,1.33,0,0,0,24.64,6a54.49,54.49,0,0,0-5.27,2A2.24,2.24,0,0,0,18,9.93v39.2A2.23,2.23,0,0,0,19.36,51s4.67,1.91,5.27,2A1.35,1.35,0,0,0,26,51.65ZM0,9.56V49.44A1.57,1.57,0,0,0,1.58,51H8.92A1.51,1.51,0,0,1,8,49.44V9.56A1.64,1.64,0,0,1,8.92,8H1.58A1.58,1.58,0,0,0,0,9.56Zm9,0V49.44A1.57,1.57,0,0,0,10.58,51h7.34A1.51,1.51,0,0,1,17,49.44V9.56A1.64,1.64,0,0,1,17.92,8H10.58A1.58,1.58,0,0,0,9,9.56Z"/></g></g></svg>