<svg xmlns="http://www.w3.org/2000/svg" viewBox="0 0 22 54"><defs><style>.cls-1{fill:#1d1d1f;fill-rule:evenodd;}</style></defs><title>ipad_mini_light_large</title><g id="Light"><g id="iPad_Mini_4" data-name="iPad Mini 4"><path id="iPad_Mini_4-2" data-name="iPad Mini 4" class="cls-1" d="M20.74,20H1.27A1.3,1.3,0,0,0,0,21.26V49.8A1.26,1.26,0,0,0,1.27,51H20.74A1.31,1.31,0,0,0,22,49.74V21.26A1.3,1.3,0,0,0,20.74,20Zm-9.79,1.25a.43.43,0,1,1-.43.43A.43.43,0,0,1,10.94,21.25ZM11,50.5a1,1,0,1,1,1-1A1,1,0,0,1,11,50.5ZM21,48H1V23H21Z"/></g></g></svg>