<svg enable-background="new 0 0 33 54" viewBox="0 0 33 54" xmlns="http://www.w3.org/2000/svg"><g clip-rule="evenodd"><path d="m0 0h33v54h-33z" fill="none"/><g fill="#1d1d1f" fill-rule="evenodd"><path d="m14.132 26.709c0-.73-.426-1.129-1.195-1.129h-1.102v2.238h1.102c.754.001 1.195-.401 1.195-1.109z"/><path d="m11.437 33.962c-2.376 0-3.867 1.805-3.867 4.673 0 2.859 1.491 4.664 3.867 4.664 2.377 0 3.867-1.805 3.867-4.664 0-2.868-1.49-4.673-3.867-4.673z"/><path d="m22.214 29.831c.707 0 1.145-.559 1.145-1.473 0-.906-.441-1.477-1.145-1.477-.707 0-1.137.559-1.137 1.477.001.922.426 1.473 1.137 1.473z"/><path d="m31.867 23.264c-.311-.79-1.029-1.903-2.047-2.686-.588-.453-1.289-.885-2.253-1.171-1.027-.304-2.292-.407-3.867-.407h-14.4c-1.575 0-2.84.103-3.867.407-.964.286-1.665.718-2.253 1.171-1.018.784-1.736 1.896-2.047 2.686-.627 1.592-.633 3.398-.633 4.536v14.4c0 1.137.006 2.944.633 4.536.311.79 1.029 1.903 2.047 2.686.588.453 1.289.885 2.253 1.171 1.027.304 2.292.407 3.867.407h14.4c1.575 0 2.84-.103 3.867-.407.964-.286 1.665-.718 2.253-1.171 1.018-.784 1.736-1.896 2.047-2.686.627-1.592.633-3.398.633-4.536v-14.4c0-1.138-.006-2.944-.633-4.536zm-9.891 2.899c.582 0 1.074.281 1.305.746h.062v-2.336h.84v5.906h-.805v-.672h-.066c-.254.465-.75.742-1.336.742-1.082 0-1.766-.852-1.766-2.195 0-1.336.692-2.191 1.766-2.191zm-11.016-1.321h2.207c1.102 0 1.859.758 1.859 1.867 0 1.086-.781 1.844-1.887 1.844h-1.305v1.926h-.874zm-1.75-.422c.293 0 .531.238.531.531 0 .289-.238.527-.531.527s-.531-.238-.531-.527c0-.292.238-.531.531-.531zm.418 1.817v4.242h-.836v-4.242zm1.809 18.4c-3.295 0-5.357-2.312-5.357-6.002s2.062-6.011 5.357-6.011c3.296 0 5.358 2.32 5.358 6.011 0 3.689-2.062 6.002-5.358 6.002zm4.219-15.353c0-.762.57-1.203 1.582-1.266l1.152-.07v-.371c0-.465-.297-.727-.871-.727-.469 0-.793.176-.887.484h-.812c.086-.715.773-1.18 1.738-1.18 1.066 0 1.668.531 1.668 1.422v2.902h-.809v-.602h-.066c-.254.43-.719.672-1.277.672-.821.001-1.418-.491-1.418-1.264zm6.531 15.353c-2.538 0-4.229-1.305-4.366-3.312h1.449c.17 1.249 1.33 2.007 2.998 2.007 1.578 0 2.723-.83 2.723-1.975 0-.975-.645-1.619-2.256-1.974l-1.289-.282c-2.328-.508-3.336-1.562-3.336-3.215 0-1.917 1.692-3.263 4.102-3.263 2.32 0 3.996 1.386 4.061 3.36h-1.45c-.129-1.273-1.136-2.055-2.651-2.055-1.449 0-2.569.709-2.569 1.893 0 .919.62 1.547 2.207 1.894l1.289.282c2.425.531 3.384 1.498 3.384 3.143-.002 2.151-1.694 3.497-4.296 3.497z"/><path d="m18.39 28.545-1.039.07c-.586.039-.852.246-.852.633 0 .395.332.625.789.625.633 0 1.102-.414 1.102-.961z"/></g></g></svg>