<svg xmlns="http://www.w3.org/2000/svg" viewBox="0 0 41 54"><defs><style>.cls-1{fill:#1d1d1f;fill-rule:evenodd;}</style></defs><title>ipad_pro_light_large</title><g id="Light"><g id="iPad_Pro" data-name="iPad Pro"><path class="cls-1" d="M34,7V6a3,3,0,0,0-3-3H3A3,3,0,0,0,0,6V48a3,3,0,0,0,3,3h8.27A2.6,2.6,0,0,1,10,49H3a1,1,0,0,1-1-1V6A1,1,0,0,1,3,5H31a1,1,0,0,1,1,1V7Z"/><path class="cls-1" d="M14,8a3,3,0,0,0-3,3V48a3,3,0,0,0,3,3H38a3,3,0,0,0,3-3V11a3,3,0,0,0-3-3m1,40a1,1,0,0,1-1,1H14a1,1,0,0,1-1-1V11a1,1,0,0,1,1-1H38a1,1,0,0,1,1,1Z"/></g></g></svg>