<svg id="Layer_4" data-name="Layer 4" xmlns="http://www.w3.org/2000/svg" viewBox="0 0 64 54"><defs><style>.cls-1{fill:#333;}.cls-2{fill:none;stroke:#333;stroke-miterlimit:10;stroke-width:0.25px;}</style></defs><title>ipad_keyboards</title><circle class="cls-1" cx="13.06" cy="49.75" r="1"/><rect class="cls-1" x="38.06" y="27.25" width="1.5" height="48" rx="0.25" transform="translate(90.06 12.44) rotate(90)"/><path class="cls-1" d="M12.7,48l-.94-.34a.25.25,0,0,1-.15-.32l5.52-15.24a.24.24,0,0,1,.32-.15l.94.34a.26.26,0,0,1,.15.32L13,47.8A.25.25,0,0,1,12.7,48Z"/><rect class="cls-1" x="13.41" y="1.27" width="1.5" height="49" rx="0.25" transform="translate(39.31 41) rotate(150)"/><rect class="cls-1" x="8.87" y="2.74" width="1" height="32.24" rx="0.25" transform="translate(26.91 30.51) rotate(150)"/><path class="cls-2" d="M12.26,47.67a17.67,17.67,0,0,1-1.37,2.52c-.46.67-.35,2,1.16,1.62a9.35,9.35,0,0,1,2.84-.56"/><rect class="cls-1" x="9.42" y="2.47" width="0.88" height="32.47" transform="translate(27.76 29.97) rotate(150)"/></svg>